#define icon_width 10
#define icon_height 10
static char icon_bits[] = {
  0x4C, 0x01, 0x34, 0x03, 0xE4, 0x02, 0x32, 0x02, 0x06, 0x00, 0x55, 0x01, 
  0xA1, 0x00, 0xC3, 0x00, 0x16, 0x02, 0xFC, 0x03, };
